inDegrees=no
num_controls=7
num_derivatives=13
num_iterations=156
num_multipliers=7
num_parameters=0
num_slacks=7
num_states=26
objective=0.516790
objective_accelerations=0.039547
objective_balance=0.002183
objective_effort=0.043452
objective_height=0.419981
objective_ligament=0.011628
solver_duration=2039.664367
status=Solve_Succeeded
success=true
DataType=double
version=3
OpenSimVersion=4.5
endheader
time	/jointset/ground_pelvis/pelvis_tilt/value	/jointset/ground_pelvis/pelvis_tx/value	/jointset/ground_pelvis/pelvis_ty/value	/jointset/hip_l/hip_flexion_l/value	/jointset/hip_l/hip_adduction_l/value	/jointset/hip_l/hip_rotation_l/value	/jointset/back/lumbar_extension/value	/jointset/patellofemoral_l/patellar_flexion_l/value	/jointset/knee_l/knee_flexion_l/value	/jointset/knee_l/knee_adduction_l/value	/jointset/knee_l/knee_rotation_l/value	/jointset/ankle_l/ankle_angle_l/value	/jointset/subtalar_l/subtalar_angle_l/value	/jointset/ground_pelvis/pelvis_tilt/speed	/jointset/ground_pelvis/pelvis_tx/speed	/jointset/ground_pelvis/pelvis_ty/speed	/jointset/hip_l/hip_flexion_l/speed	/jointset/hip_l/hip_adduction_l/speed	/jointset/hip_l/hip_rotation_l/speed	/jointset/back/lumbar_extension/speed	/jointset/patellofemoral_l/patellar_flexion_l/speed	/jointset/knee_l/knee_flexion_l/speed	/jointset/knee_l/knee_adduction_l/speed	/jointset/knee_l/knee_rotation_l/speed	/jointset/ankle_l/ankle_angle_l/speed	/jointset/subtalar_l/subtalar_angle_l/speed	/forceset/tau_hip_flexion_l	/forceset/tau_hip_adduction_l	/forceset/tau_hip_rotation_l	/forceset/tau_knee_flexion_l	/forceset/tau_ankle_angle_l	/forceset/tau_subtalar_angle_l	/forceset/tau_lumbar_extension	lambda_cid13_p0	lambda_cid13_p1	lambda_cid13_p2	lambda_cid13_p3	lambda_cid13_p4	lambda_cid13_p5	lambda_cid14_p0	/jointset/ground_pelvis/pelvis_tilt/accel	/jointset/ground_pelvis/pelvis_tx/accel	/jointset/ground_pelvis/pelvis_ty/accel	/jointset/hip_l/hip_flexion_l/accel	/jointset/hip_l/hip_adduction_l/accel	/jointset/hip_l/hip_rotation_l/accel	/jointset/back/lumbar_extension/accel	/jointset/patellofemoral_l/patellar_flexion_l/accel	/jointset/knee_l/knee_flexion_l/accel	/jointset/knee_l/knee_adduction_l/accel	/jointset/knee_l/knee_rotation_l/accel	/jointset/ankle_l/ankle_angle_l/accel	/jointset/subtalar_l/subtalar_angle_l/accel	gamma_cid13_p0	gamma_cid13_p1	gamma_cid13_p2	gamma_cid13_p3	gamma_cid13_p4	gamma_cid13_p5	gamma_cid14_p0
0.5	-0.1172343032819989	-0.05531729895343593	0.8251323031983393	0.8865464441823098	-0.3237262966013106	-0.123351976459068	-0.7790952566309364	0.787258709510578	0.7872587095105089	-0.1089045485419295	-0.1745321316186214	0.0720968576287388	-0.006566195013636326	-0.1977158477158118	-0.2033308543776684	-0.3365783731019795	1.477148156706558	-0.04110955443619876	0.4555722933498477	-0.8401202235216997	1.432781953437495	1.432781953437484	0.1315313585204084	-4.588465688775943e-06	0.2444468724213626	0.03285898822813109	-0.2798358711639702	0.01515823768211149	-0.003345248695579077	-0.2123165534173304	0.1139710252975113	0.05398289975096824	0.3290526308859141	-7.804545531080113	-23.61379261287527	5.064331476977898	-9.787381530039234	-703.6522972983757	-81.54922740557897	-14.94018625294997	0.2763386504153174	0.6509269103475712	-0.1115267405288435	-1.434614624436055	0.2196153935450426	-0.345571825241146	1.701883723274648	-1.103349903451497	-1.103349903451495	-0.2869742814515149	0.02275880887083564	0.006406569596131576	0.2438961240699241	-5.685165619165918e-08	-4.897739378872462e-07	7.998603698142172e-08	-5.415024524686755e-08	-8.308816552015924e-08	-5.756534435457111e-08	-8.064432144648522e-08
0.51	-0.1191973944464358	-0.05731795732924709	0.8217616845970549	0.901244001072896	-0.3241268141233223	-0.1188147465899723	-0.7874104117101212	0.8015290737701894	0.8015290737701222	-0.1076040670804191	-0.174531959744443	0.07454093366584713	-0.006226052002348987	-0.1948738570524314	-0.1967912155213985	-0.3374688075178063	1.462153145272573	-0.03899402409881435	0.4518024907903319	-0.8228184733556121	1.421073153383343	1.421073153383346	0.1285673048246595	2.952341278274471e-05	0.2443178811095338	0.03515538832244481	-0.2862706564495905	0.01547767693264787	-0.00355468390861312	-0.2147740256896781	0.1140154485851369	0.05446674532922365	0.3352518475215503	-8.009610001889763	-23.74892979841362	5.041223926084176	-9.777756660189498	-707.5804878654343	-81.5223101597974	-14.4164101521925	0.2924034534447399	0.6569142184120983	-0.06633776610010564	-1.563461582983828	0.2075502048444404	-0.4034366255227795	1.7581685072298	-1.237290466500311	-1.237290466498382	-0.3008411228163182	-0.007643432730908404	-0.03013602045448996	0.2204342525621406	-7.751888241963008e-08	-3.731240392444408e-07	2.560026522521148e-07	-2.178134486992931e-08	-9.551295842714188e-08	-4.653040755819448e-08	-8.78966180710197e-08
0.52	-0.1211312108684102	-0.05925293294746649	0.8183844544568141	0.9157853044131211	-0.3245061706717586	-0.1143173651773152	-0.7955497797188543	0.8156758209472377	0.8156758209471744	-0.1063331701976988	-0.1745317229134966	0.07698220298206065	-0.005863360530028514	-0.1918608992232359	-0.1901943028593133	-0.3379006808932545	1.445897446634423	-0.03687735972105703	0.4476026020621761	-0.8049628094313646	1.408058536925057	1.408058536925072	0.1256144427617201	8.402888605622995e-06	0.2438855282424204	0.03736868043476022	-0.2927054417352121	0.01579711618318217	-0.003764119121627027	-0.2172314979620273	0.1140598718727616	0.05495059090747625	0.3414510641571859	-8.217737295776104	-23.88462357044165	5.019453529999199	-9.795311871273118	-711.5798276080949	-81.52005403485951	-13.88973077602042	0.3105320835783534	0.6623816715106465	-0.01981453245312674	-1.686752065269072	0.2198422016196279	-0.4315890589691423	1.812666474906634	-1.36451318427855	-1.364513184278547	-0.2847359548896301	0.01171232834110532	-0.05426574146080258	0.2272745276702602	-1.08316832197532e-07	-2.225350220227628e-07	5.088423642216606e-07	2.456730673540581e-08	-1.175661170030437e-07	-3.069442126201401e-08	-1.002638080972253e-07
0.53	-0.1230340683969336	-0.06112172060456792	0.8150052121018158	0.9301578151621435	-0.3248645072062257	-0.1098629575758396	-0.8035079587408196	0.8296858954253077	0.8296858954252863	-0.1050927098152892	-0.1745312289304752	0.0794175762920438	-0.005479156235246883	-0.1886848451074027	-0.1835604797575589	-0.3378693256017103	1.428401959972716	-0.03479279580929834	0.4432072430955291	-0.7865942550922096	1.393741063239085	1.393741063238973	0.1224788775801449	7.85728187098226e-05	0.2431358618462949	0.03945378417672687	-0.2989506426341341	0.01613544696282622	-0.003964447060729417	-0.2196797483801375	0.1139605585594035	0.05527122348320542	0.3474342566170642	-8.475534822780672	-23.93837939289763	4.981926668208668	-9.682486559208646	-715.4927137436684	-81.39010658242493	-13.36085071399254	0.3249931367637729	0.664304732420185	0.02635440574181267	-1.811374895800404	0.2022658631222324	-0.4543611425905131	1.860760893848154	-1.497637426286281	-1.497637426305437	-0.3277857425353789	0.003024873940015025	-0.09331032808033116	0.1963171325954302	-1.217692881871041e-07	-1.220634492988926e-07	6.415435532259497e-07	5.08120198851703e-08	-1.242842943245526e-07	-1.578675635053673e-08	-1.03817606351022e-07
0.54	-0.1249043951720636	-0.06292408561006933	0.8116286320688897	0.9443492854587123	-0.3252020976261419	-0.1054546739294462	-0.8112800900233078	0.8435463405734117	0.8435463405734317	-0.1038835688732428	-0.1745303621384348	0.08184385429018724	-0.005074663136018486	-0.1853547485444494	-0.1769097725393115	-0.337368216478823	1.409689356143853	-0.03272813681080926	0.43837781104576	-0.7677532615359248	1.378132670931923	1.378132670931683	0.119350554688813	8.296469261151827e-05	0.2420664658744933	0.04142644132411599	-0.3051958435330573	0.01647377774246903	-0.004164774999824611	-0.2221279987982484	0.1138612452460451	0.05559185605893301	0.3534174490769417	-8.736982437377941	-23.99246602011098	4.945560945325487	-9.599583118003441	-719.487250338109	-81.29795210791818	-12.83062116243186	0.3413405730024079	0.665758494809248	0.07413623381545191	-1.93017549870037	0.2158612189657044	-0.5184036755935859	1.90715431833261	-1.622696908516579	-1.622696908516571	-0.2832874968409618	-0.001443282899399433	-0.1182116565960167	0.2047852087547537	-1.160309850917153e-07	-7.704096410451261e-08	6.413255253325062e-07	5.48140777223883e-08	-1.140361094071585e-07	-1.906170417880007e-09	-9.762041796300425e-08
0.55	-0.1267407096268045	-0.06465991114137748	0.8082594164031566	0.9583476951337799	-0.3255191293382626	-0.1010965144084652	-0.8188615653729295	0.8572443408297257	0.8572443408297122	-0.1027058039057998	-0.1745295211730094	0.08425787446140839	-0.004650989975601147	-0.1818856621576373	-0.1702573589821408	-0.336395265987975	1.389796555219365	-0.0306861508109196	0.433200019374409	-0.7484775007085608	1.361256469420901	1.361256469420801	0.1161880264470166	8.298232720581863e-05	0.2406845248846805	0.04328383069053451	-0.3111429925027888	0.01667705613763903	-0.004341933057150107	-0.2246812405718634	0.1138034084427731	0.05581643728395317	0.3591075357700266	-8.982152257848851	-24.00560144214531	4.900282982635066	-9.455001440338899	-723.3413586715827	-81.16511611488457	-12.29998893904732	0.353052105272195	0.6646903965926028	0.120800369452994	-2.048251616184323	0.1970933937571723	-0.5256660743370337	1.947433116921265	-1.751699560860181	-1.751699560839147	-0.3348886383845405	0.000514662877139548	-0.15614046053901	0.1724952304648262	-1.0867925897502e-07	-3.970575616698431e-08	6.291399949281039e-07	5.618978925571176e-08	-1.021464614274209e-07	1.057574356850843e-08	-9.091574820819508e-08
0.5600000000000001	-0.1285416613309273	-0.0663292710150296	0.8049023154248786	0.9721412929542298	-0.3258159959697334	-0.09679177263648403	-0.8262483538838811	0.8707672555132364	0.8707672555131909	-0.1015600948508816	-0.1745287219559898	0.08665648419465836	-0.004209487035543752	-0.1782821984207608	-0.163616641008106	-0.3349452789877875	1.368726985220424	-0.02869512068076639	0.4276942612458108	-0.7288158938018778	1.343115556371272	1.343115556371312	0.1129393721837976	7.461501133186958e-05	0.2389843782802637	0.04499239725213005	-0.3170901414725211	0.01688033453280798	-0.004519091114475799	-0.2272344823454786	0.1137455716395008	0.05604101850897208	0.3647976224631111	-9.231763937606303	-24.01890365161676	4.856111002660329	-9.337488796295091	-727.2870897219366	-81.06927657521973	-11.77001198893255	0.368216043015311	0.663419378182091	0.1695435356833349	-2.165529313590882	0.2056700450184153	-0.5839969670430265	1.984323534196381	-1.875639216237961	-1.875639216237973	-0.3005127011254933	-0.003120272993052782	-0.1818527795168141	0.1750206477901573	-9.939142523275706e-08	-1.15952809376777e-08	6.025934615105517e-07	5.441388522436187e-08	-8.828705777287127e-08	2.1379251219375e-08	-8.36021008132362e-08
